<svg width="25" height="31" viewBox="0 0 25 31" fill="none" xmlns="http://www.w3.org/2000/svg">
<path d="M24.1845 11.0189C24.013 11.1527 20.9858 12.8683 20.9858 16.6831C20.9858 21.0955 24.8379 22.6565 24.9532 22.6952C24.9354 22.7903 24.3412 24.833 22.9222 26.9143C21.6569 28.7459 20.3354 30.5745 18.3251 30.5745C16.3148 30.5745 15.7974 29.4 13.4767 29.4C11.2151 29.4 10.411 30.6131 8.57218 30.6131C6.73335 30.6131 5.4503 28.9184 3.9751 26.837C2.26634 24.3929 0.885742 20.596 0.885742 16.9923C0.885742 11.2122 4.62253 8.14666 8.3002 8.14666C10.2543 8.14666 11.8833 9.43709 13.1101 9.43709C14.2779 9.43709 16.099 8.06935 18.3221 8.06935C19.1647 8.06935 22.192 8.14666 24.1845 11.0189ZM17.2667 5.6223C18.1861 4.52514 18.8365 3.0028 18.8365 1.48045C18.8365 1.26935 18.8188 1.05527 18.7804 0.882812C17.2845 0.939306 15.5048 1.88483 14.4316 3.1366C13.5891 4.09996 12.8027 5.6223 12.8027 7.16546C12.8027 7.39738 12.8411 7.6293 12.8588 7.70363C12.9534 7.72147 13.1072 7.74229 13.2609 7.74229C14.6031 7.74229 16.2911 6.83839 17.2667 5.6223Z" fill="white"/>
</svg>
