<svg width="26" height="24" viewBox="0 0 26 24" fill="none" xmlns="http://www.w3.org/2000/svg">
<g clip-path="url(#clip0_574_26936)">
<path d="M25.0079 12.532C25.0079 11.575 24.926 10.8766 24.7488 10.1523H13.2266V14.4719H19.9898C19.8535 15.5454 19.1172 17.162 17.4809 18.2483L17.4579 18.3929L21.1011 21.0697L21.3535 21.0936C23.6715 19.0631 25.0079 16.0756 25.0079 12.532Z" fill="#4285F4"/>
<path d="M13.2268 23.9118C16.5403 23.9118 19.322 22.8771 21.3537 21.0924L17.4812 18.2471C16.4449 18.9326 15.054 19.4111 13.2268 19.4111C9.98156 19.4111 7.22716 17.3807 6.24529 14.5742L6.10137 14.5858L2.31321 17.3664L2.26367 17.497C4.28174 21.2993 8.42702 23.9118 13.2268 23.9118Z" fill="white"/>
<path d="M6.24472 14.5758C5.98565 13.8516 5.83571 13.0756 5.83571 12.2738C5.83571 11.4719 5.98565 10.6959 6.23109 9.97169L6.22423 9.81745L2.3886 6.99219L2.2631 7.0488C1.43136 8.62664 0.954102 10.3985 0.954102 12.2738C0.954102 14.149 1.43136 15.9208 2.2631 17.4986L6.24472 14.5758Z" fill="#FBBC05"/>
<path d="M13.2269 5.13345C15.5313 5.13345 17.0857 6.07755 17.9721 6.86651L21.4355 3.65912C19.3084 1.78385 16.5403 0.632812 13.2269 0.632812C8.42702 0.632812 4.28174 3.24525 2.26367 7.0475L6.23166 9.97039C7.22716 7.16394 9.98156 5.13345 13.2269 5.13345Z" fill="#EB4335"/>
</g>
<defs>
<clipPath id="clip0_574_26936">
<rect width="24.0674" height="23.3596" fill="white" transform="translate(0.953125 0.632812)"/>
</clipPath>
</defs>
</svg>
