<svg width="30" height="30" viewBox="0 0 30 30" fill="none" xmlns="http://www.w3.org/2000/svg">
<path d="M22.1647 27.6085H8.63134C6.43217 27.6085 4.42634 25.9168 4.06384 23.7418L2.45676 14.1235C2.20301 12.6252 2.92801 10.7039 4.12426 9.74934L12.498 3.04304C14.1172 1.73804 16.6668 1.75013 18.298 3.05513L26.6718 9.74934C27.8559 10.7039 28.5809 12.6252 28.3393 14.1235L26.7322 23.7418C26.3697 25.8805 24.3276 27.6085 22.1647 27.6085ZM15.3859 3.90098C14.7455 3.90098 14.1051 4.09428 13.6338 4.46886L5.2601 11.1752C4.57135 11.731 4.1001 12.9634 4.2451 13.8334L5.85219 23.4518C6.06969 24.7205 7.33842 25.796 8.63134 25.796H22.1647C23.4576 25.796 24.7263 24.7205 24.9438 23.4397L26.5509 13.8214C26.6959 12.9514 26.2126 11.7068 25.5359 11.1631L17.1622 4.46886C16.6789 4.09428 16.0384 3.90098 15.3859 3.90098Z" fill="white"/>
<path d="M15.3978 19.9831C13.2349 19.9831 11.4707 18.2189 11.4707 16.056C11.4707 13.8931 13.2349 12.1289 15.3978 12.1289C17.5607 12.1289 19.3249 13.8931 19.3249 16.056C19.3249 18.2189 17.5607 19.9831 15.3978 19.9831ZM15.3978 13.9414C14.2378 13.9414 13.2832 14.896 13.2832 16.056C13.2832 17.216 14.2378 18.1706 15.3978 18.1706C16.5578 18.1706 17.5124 17.216 17.5124 16.056C17.5124 14.896 16.5578 13.9414 15.3978 13.9414Z" fill="white"/>
</svg>
