<svg width="30" height="30" viewBox="0 0 30 30" fill="none" xmlns="http://www.w3.org/2000/svg">
<path d="M21.6647 27.6085H8.13134C5.93217 27.6085 3.92634 25.9168 3.56384 23.7418L1.95676 14.1235C1.70301 12.6252 2.42801 10.7039 3.62426 9.74934L11.998 3.04304C13.6172 1.73804 16.1668 1.75013 17.798 3.05513L26.1718 9.74934C27.3559 10.7039 28.0809 12.6252 27.8393 14.1235L26.2322 23.7418C25.8697 25.8805 23.8276 27.6085 21.6647 27.6085ZM14.8859 3.90098C14.2455 3.90098 13.6051 4.09428 13.1338 4.46886L4.7601 11.1752C4.07135 11.731 3.6001 12.9634 3.7451 13.8334L5.35219 23.4518C5.56969 24.7205 6.83842 25.796 8.13134 25.796H21.6647C22.9576 25.796 24.2263 24.7205 24.4438 23.4397L26.0509 13.8214C26.1959 12.9514 25.7126 11.7068 25.0359 11.1631L16.6622 4.46886C16.1789 4.09428 15.5384 3.90098 14.8859 3.90098Z" fill="#575C5F"/>
<path d="M14.8973 19.9831C12.7344 19.9831 10.9702 18.2189 10.9702 16.056C10.9702 13.8931 12.7344 12.1289 14.8973 12.1289C17.0602 12.1289 18.8244 13.8931 18.8244 16.056C18.8244 18.2189 17.0602 19.9831 14.8973 19.9831ZM14.8973 13.9414C13.7373 13.9414 12.7827 14.896 12.7827 16.056C12.7827 17.216 13.7373 18.1706 14.8973 18.1706C16.0573 18.1706 17.0119 17.216 17.0119 16.056C17.0119 14.896 16.0573 13.9414 14.8973 13.9414Z" fill="#575C5F"/>
</svg>
