<svg width="30" height="30" viewBox="0 0 30 30" fill="none" xmlns="http://www.w3.org/2000/svg">
<path fill-rule="evenodd" clip-rule="evenodd" d="M10.5645 3.22811C10.5645 2.45131 11.2041 1.81172 11.981 1.81172H18.7964C19.5733 1.81172 20.2129 2.45131 20.2129 3.22811V4.61711H10.5645V3.22811ZM11.981 0.511719C10.4862 0.511719 9.26449 1.73326 9.26449 3.22811V4.6176H8.54944C6.68525 4.6176 5.16263 6.14006 5.16263 8.00423V9.29593C3.97974 9.74886 2.98904 10.4907 2.27704 11.5578C1.47796 12.7554 1.06445 14.3103 1.06445 16.2151V21.6883C1.06445 24.2068 1.78733 26.1126 3.15373 27.3814C4.5114 28.642 6.40424 29.1799 8.55647 29.1799H22.2405C24.3928 29.1799 26.2856 28.642 27.6433 27.3814C29.0097 26.1126 29.7325 24.2068 29.7325 21.6883V16.2151C29.7325 14.3103 29.319 12.7554 28.5199 11.5578C27.8051 10.4865 26.8094 9.74299 25.6203 9.29056V8.00423C25.6203 6.14006 24.0977 4.6176 22.2335 4.6176H21.5129V3.22811C21.5129 1.73326 20.2912 0.511719 18.7964 0.511719H11.981ZM8.54944 5.9176C7.40314 5.9176 6.46263 6.85811 6.46263 8.00423V8.91827C7.12144 8.785 7.8195 8.72255 8.54944 8.72255H22.2335C22.7412 8.72255 23.2334 8.75276 23.7077 8.81599C23.9154 8.84352 24.1197 8.87737 24.3203 8.91778V8.00423C24.3203 6.85811 23.3798 5.9176 22.2335 5.9176H8.54944ZM22.2405 10.0235C22.6951 10.0235 23.1271 10.0504 23.5359 10.1046C23.9758 10.1632 24.3888 10.2534 24.7741 10.3754C24.7878 10.3797 24.8016 10.3836 24.8154 10.387C25.9437 10.7406 26.8277 11.3639 27.4386 12.2793C28.0592 13.2095 28.4325 14.4938 28.4325 16.2151V21.6883C28.4325 23.959 27.787 25.4739 26.7587 26.4287C25.7217 27.3916 24.1935 27.8799 22.2405 27.8799H8.55647C6.6035 27.8799 5.07532 27.3916 4.03829 26.4287C3.00998 25.4739 2.36445 23.959 2.36445 21.6883V16.2151C2.36445 14.4938 2.73778 13.2095 3.35842 12.2793C3.97458 11.3559 4.86866 10.7298 6.01105 10.3778L6.01105 10.3779L6.01588 10.3763C6.76106 10.1404 7.60973 10.0235 8.55647 10.0235H22.2405ZM11.3831 22.077C10.7441 22.077 10.2261 22.5949 10.2261 23.2338C10.2261 23.8726 10.7441 24.3906 11.3831 24.3906C12.0221 24.3906 12.54 23.8726 12.54 23.2338C12.54 22.5949 12.0221 22.077 11.3831 22.077ZM8.92614 23.2338C8.92614 21.8769 10.0262 20.777 11.3831 20.777C11.8044 20.777 12.2009 20.883 12.5474 21.0699V18.0781C12.5472 18.0684 12.5472 18.0587 12.5474 18.0491V17.201V15.9421C12.5474 14.8782 13.2131 14.1142 14.1356 13.8642L14.1358 13.8642L14.1361 13.8641L17.7583 12.88C18.305 12.7245 18.9918 12.6636 19.5718 13.0037C20.2008 13.3726 20.4849 14.0749 20.4849 14.9568V16.2436C20.4851 16.2533 20.4851 16.2629 20.4849 16.2726V21.9731C20.4854 21.9928 20.4856 22.0126 20.4856 22.0325C20.4856 23.3894 19.3855 24.4893 18.0287 24.4893C16.6718 24.4893 15.5717 23.3894 15.5717 22.0325C15.5717 20.6756 16.6718 19.5757 18.0287 19.5757C18.4467 19.5757 18.8403 19.68 19.1849 19.8642V17.1082L13.8474 18.5607V23.236C13.8474 23.2754 13.8439 23.314 13.8372 23.3514C13.7758 24.6537 12.7005 25.6906 11.3831 25.6906C10.0262 25.6906 8.92614 24.5907 8.92614 23.2338ZM13.8474 17.2135L19.1849 15.7609V14.9568C19.1849 14.3334 18.9968 14.1736 18.9141 14.1251C18.784 14.0487 18.5217 14.0139 18.1111 14.1312L18.103 14.1336L18.103 14.1335L14.4764 15.1188L14.4759 15.1189C14.0847 15.2248 13.8474 15.5008 13.8474 15.9421V17.201V17.2135ZM19.1849 22.0317V21.9918C19.1635 21.3718 18.654 20.8757 18.0287 20.8757C17.3897 20.8757 16.8717 21.3936 16.8717 22.0325C16.8717 22.6713 17.3897 23.1893 18.0287 23.1893C18.6597 23.1893 19.1726 22.6842 19.1854 22.0564C19.1851 22.0501 19.185 22.0437 19.1849 22.0373C19.1849 22.0354 19.1849 22.0336 19.1849 22.0317Z" fill="white"/>
</svg>
