<svg width="29" height="30" viewBox="0 0 29 30" fill="none" xmlns="http://www.w3.org/2000/svg">
<path fill-rule="evenodd" clip-rule="evenodd" d="M9.56449 3.22811C9.56449 2.45131 10.2041 1.81172 10.981 1.81172H17.7964C18.5733 1.81172 19.2129 2.45131 19.2129 3.22811V4.61711H9.56449V3.22811ZM10.981 0.511719C9.48617 0.511719 8.26449 1.73326 8.26449 3.22811V4.6176H7.54944C5.68525 4.6176 4.16263 6.14006 4.16263 8.00423V9.29593C2.97974 9.74886 1.98904 10.4907 1.27704 11.5578C0.477959 12.7554 0.0644531 14.3103 0.0644531 16.2151V21.6883C0.0644531 24.2068 0.787329 26.1126 2.15373 27.3814C3.5114 28.642 5.40424 29.1799 7.55647 29.1799H21.2405C23.3928 29.1799 25.2856 28.642 26.6433 27.3814C28.0097 26.1126 28.7325 24.2068 28.7325 21.6883V16.2151C28.7325 14.3103 28.319 12.7554 27.5199 11.5578C26.8051 10.4865 25.8094 9.74299 24.6203 9.29056V8.00423C24.6203 6.14006 23.0977 4.6176 21.2335 4.6176H20.5129V3.22811C20.5129 1.73326 19.2912 0.511719 17.7964 0.511719H10.981ZM7.54944 5.9176C6.40314 5.9176 5.46263 6.85811 5.46263 8.00423V8.91827C6.12144 8.785 6.8195 8.72255 7.54944 8.72255H21.2335C21.7412 8.72255 22.2334 8.75276 22.7077 8.81599C22.9154 8.84352 23.1197 8.87737 23.3203 8.91778V8.00423C23.3203 6.85811 22.3798 5.9176 21.2335 5.9176H7.54944ZM21.2405 10.0235C21.6951 10.0235 22.1271 10.0504 22.5359 10.1046C22.9758 10.1632 23.3888 10.2534 23.7741 10.3754C23.7878 10.3797 23.8016 10.3836 23.8154 10.387C24.9437 10.7406 25.8277 11.3639 26.4386 12.2793C27.0592 13.2095 27.4325 14.4938 27.4325 16.2151V21.6883C27.4325 23.959 26.787 25.4739 25.7587 26.4287C24.7217 27.3916 23.1935 27.8799 21.2405 27.8799H7.55647C5.6035 27.8799 4.07532 27.3916 3.03829 26.4287C2.00998 25.4739 1.36445 23.959 1.36445 21.6883V16.2151C1.36445 14.4938 1.73778 13.2095 2.35842 12.2793C2.97458 11.3559 3.86866 10.7298 5.01105 10.3778L5.01105 10.3779L5.01588 10.3763C5.76106 10.1404 6.60973 10.0235 7.55647 10.0235H21.2405ZM10.3831 22.077C9.74408 22.077 9.22614 22.5949 9.22614 23.2338C9.22614 23.8726 9.74408 24.3906 10.3831 24.3906C11.0221 24.3906 11.54 23.8726 11.54 23.2338C11.54 22.5949 11.0221 22.077 10.3831 22.077ZM7.92614 23.2338C7.92614 21.8769 9.02619 20.777 10.3831 20.777C10.8044 20.777 11.2009 20.883 11.5474 21.0699V18.0781C11.5472 18.0684 11.5472 18.0587 11.5474 18.0491V17.201V15.9421C11.5474 14.8782 12.2131 14.1142 13.1356 13.8642L13.1358 13.8642L13.1361 13.8641L16.7583 12.88C17.305 12.7245 17.9918 12.6636 18.5718 13.0037C19.2008 13.3726 19.4849 14.0749 19.4849 14.9568V16.2436C19.4851 16.2533 19.4851 16.2629 19.4849 16.2726V21.9731C19.4854 21.9928 19.4856 22.0126 19.4856 22.0325C19.4856 23.3894 18.3855 24.4893 17.0287 24.4893C15.6718 24.4893 14.5717 23.3894 14.5717 22.0325C14.5717 20.6756 15.6718 19.5757 17.0287 19.5757C17.4467 19.5757 17.8403 19.68 18.1849 19.8642V17.1082L12.8474 18.5607V23.236C12.8474 23.2754 12.8439 23.314 12.8372 23.3514C12.7758 24.6537 11.7005 25.6906 10.3831 25.6906C9.02619 25.6906 7.92614 24.5907 7.92614 23.2338ZM12.8474 17.2135L18.1849 15.7609V14.9568C18.1849 14.3334 17.9968 14.1736 17.9141 14.1251C17.784 14.0487 17.5217 14.0139 17.1111 14.1312L17.103 14.1336L17.103 14.1335L13.4764 15.1188L13.4759 15.1189C13.0847 15.2248 12.8474 15.5008 12.8474 15.9421V17.201V17.2135ZM18.1849 22.0317V21.9918C18.1635 21.3718 17.654 20.8757 17.0287 20.8757C16.3897 20.8757 15.8717 21.3936 15.8717 22.0325C15.8717 22.6713 16.3897 23.1893 17.0287 23.1893C17.6597 23.1893 18.1726 22.6842 18.1854 22.0564C18.1851 22.0501 18.185 22.0437 18.1849 22.0373C18.1849 22.0354 18.1849 22.0336 18.1849 22.0317Z" fill="#575C5F"/>
</svg>
