<svg width="30" height="30" viewBox="0 0 30 30" fill="none" xmlns="http://www.w3.org/2000/svg">
<path d="M19.0238 27.8385H11.7738C5.21251 27.8385 2.40918 25.0352 2.40918 18.474V11.224C2.40918 4.66271 5.21251 1.85938 11.7738 1.85938H19.0238C25.585 1.85938 28.3883 4.66271 28.3883 11.224V18.474C28.3883 25.0352 25.585 27.8385 19.0238 27.8385ZM11.7738 3.67188C6.20335 3.67188 4.22168 5.65354 4.22168 11.224V18.474C4.22168 24.0444 6.20335 26.026 11.7738 26.026H19.0238C24.5942 26.026 26.5758 24.0444 26.5758 18.474V11.224C26.5758 5.65354 24.5942 3.67188 19.0238 3.67188H11.7738Z" fill="#575C5F"/>
<path d="M11.0729 21.927C9.52621 21.927 8.26953 20.6703 8.26953 19.1237C8.26953 17.577 9.52621 16.3203 11.0729 16.3203C12.6195 16.3203 13.8762 17.577 13.8762 19.1237C13.8762 20.6703 12.6195 21.927 11.0729 21.927ZM11.0729 18.1328C10.5291 18.1328 10.082 18.5799 10.082 19.1237C10.082 19.6674 10.5291 20.1145 11.0729 20.1145C11.6166 20.1145 12.0637 19.6674 12.0637 19.1237C12.0637 18.5799 11.6166 18.1328 11.0729 18.1328Z" fill="#575C5F"/>
<path d="M12.9697 20.0302C12.4743 20.0302 12.0635 19.6193 12.0635 19.1239V11.4752C12.0635 10.3152 12.7885 9.37267 13.9002 9.07059L17.6944 8.03144C18.8423 7.71727 19.5673 8.01935 19.966 8.32143C20.546 8.76851 20.836 9.46941 20.836 10.424V17.8431C20.836 18.3385 20.4252 18.7494 19.9297 18.7494C19.4343 18.7494 19.0235 18.3385 19.0235 17.8431V10.424C19.0235 10.0252 18.9389 9.80768 18.8664 9.75935C18.806 9.71102 18.5885 9.66269 18.1655 9.77144L14.3714 10.8106C14.0331 10.9073 13.876 11.1127 13.876 11.4631V19.1119C13.876 19.6194 13.4651 20.0302 12.9697 20.0302Z" fill="#575C5F"/>
<path d="M18.0328 20.6614C16.4862 20.6614 15.2295 19.4047 15.2295 17.858C15.2295 16.3114 16.4862 15.0547 18.0328 15.0547C19.5795 15.0547 20.8362 16.3114 20.8362 17.858C20.8362 19.4047 19.5795 20.6614 18.0328 20.6614ZM18.0328 16.8672C17.4891 16.8672 17.042 17.3143 17.042 17.858C17.042 18.4018 17.4891 18.8489 18.0328 18.8489C18.5766 18.8489 19.0237 18.4018 19.0237 17.858C19.0237 17.3143 18.5766 16.8672 18.0328 16.8672Z" fill="#575C5F"/>
<path d="M12.9696 14.5923C12.5709 14.5923 12.2084 14.3265 12.0997 13.9277C11.9668 13.4444 12.2567 12.949 12.74 12.8161L19.7001 10.919C20.1955 10.7861 20.6788 11.0761 20.8117 11.5595C20.9446 12.0428 20.6547 12.5382 20.1713 12.6711L13.2113 14.5682C13.1267 14.5803 13.0421 14.5923 12.9696 14.5923Z" fill="#575C5F"/>
</svg>
