<svg width="30" height="30" viewBox="0 0 30 30" fill="none" xmlns="http://www.w3.org/2000/svg">
<path d="M21.4404 6.39062H9.3571C5.7321 6.39062 3.31543 8.80729 3.31543 12.4323V20.8906C3.31543 24.5156 5.7321 26.9323 9.3571 26.9323H21.4404C25.0654 26.9323 27.4821 24.5156 27.4821 20.8906V12.4323C27.4821 8.80729 25.0654 6.39062 21.4404 6.39062Z" stroke="#575C5F" stroke-width="1.5" stroke-linecap="round" stroke-linejoin="round"/>
<path d="M9.35645 2.76562V6.39062" stroke="#575C5F" stroke-width="1.5" stroke-linecap="round" stroke-linejoin="round"/>
<path d="M11.1693 19.6823C12.8376 19.6823 14.1901 18.3298 14.1901 16.6615C14.1901 14.9931 12.8376 13.6406 11.1693 13.6406C9.50091 13.6406 8.14844 14.9931 8.14844 16.6615C8.14844 18.3298 9.50091 19.6823 11.1693 19.6823Z" stroke="#575C5F" stroke-width="1.5" stroke-linecap="round" stroke-linejoin="round"/>
<path d="M18.4189 13.6406H23.2523" stroke="#575C5F" stroke-width="1.5" stroke-linecap="round" stroke-linejoin="round"/>
<path d="M18.4189 18.4727H19.0231" stroke="#575C5F" stroke-width="1.5" stroke-linecap="round" stroke-linejoin="round"/>
<path d="M22.6484 18.4727H23.2526" stroke="#575C5F" stroke-width="1.5" stroke-linecap="round" stroke-linejoin="round"/>
</svg>
