<svg width="30" height="30" viewBox="0 0 30 30" fill="none" xmlns="http://www.w3.org/2000/svg">
<path d="M20.9399 6.39062H8.85661C5.23161 6.39062 2.81494 8.80729 2.81494 12.4323V20.8906C2.81494 24.5156 5.23161 26.9323 8.85661 26.9323H20.9399C24.5649 26.9323 26.9816 24.5156 26.9816 20.8906V12.4323C26.9816 8.80729 24.5649 6.39062 20.9399 6.39062Z" stroke="white" stroke-width="1.5" stroke-linecap="round" stroke-linejoin="round"/>
<path d="M8.85693 2.76562V6.39062" stroke="white" stroke-width="1.5" stroke-linecap="round" stroke-linejoin="round"/>
<path d="M10.6693 19.6823C12.3376 19.6823 13.6901 18.3298 13.6901 16.6615C13.6901 14.9931 12.3376 13.6406 10.6693 13.6406C9.00091 13.6406 7.64844 14.9931 7.64844 16.6615C7.64844 18.3298 9.00091 19.6823 10.6693 19.6823Z" stroke="white" stroke-width="1.5" stroke-linecap="round" stroke-linejoin="round"/>
<path d="M17.9194 13.6406H22.7528" stroke="white" stroke-width="1.5" stroke-linecap="round" stroke-linejoin="round"/>
<path d="M17.9194 18.4727H18.5236" stroke="white" stroke-width="1.5" stroke-linecap="round" stroke-linejoin="round"/>
<path d="M22.1484 18.4727H22.7526" stroke="white" stroke-width="1.5" stroke-linecap="round" stroke-linejoin="round"/>
</svg>
